<?xml version="1.0" standalone="no"?>
<!DOCTYPE svg PUBLIC "-//W3C//DTD SVG 20010904//EN"
 "http://www.w3.org/TR/2001/REC-SVG-20010904/DTD/svg10.dtd">
<svg version="1.0" xmlns="http://www.w3.org/2000/svg"
 width="317.000000pt" height="317.000000pt" viewBox="0 0 317.000000 317.000000"
 preserveAspectRatio="xMidYMid meet">
<metadata>
Created by potrace 1.14, written by Peter Selinger 2001-2017
</metadata>
<g transform="translate(0.000000,317.000000) scale(0.100000,-0.100000)"
fill="#000000" stroke="none">
<path d="M1485 3005 c-171 -30 -367 -105 -535 -205 -123 -73 -310 -252 -389
-373 -8 -12 -32 -48 -54 -80 -97 -144 -174 -352 -208 -560 -8 -52 -10 -132 -6
-240 6 -160 18 -230 63 -365 30 -87 147 -315 189 -367 23 -28 50 -64 61 -80
38 -58 227 -236 312 -293 151 -100 300 -164 481 -205 84 -19 125 -22 336 -21
211 0 250 2 325 21 47 12 99 24 115 26 42 8 267 109 319 144 74 50 139 106
246 214 149 149 223 255 302 434 14 33 35 81 47 106 38 86 62 233 68 413 10
305 -47 520 -208 783 -57 93 -97 141 -214 256 -185 182 -334 269 -608 353
l-152 47 -205 3 c-144 2 -229 -1 -285 -11z m-755 -2152 c0 -22 -2 -25 -10 -13
-13 20 -13 40 0 40 6 0 10 -12 10 -27z m1077 -547 c-4 -9 -13 -12 -26 -9 -26
7 -26 12 -3 29 20 15 38 3 29 -20z"/>
</g>
</svg>
